<?xml version="1.0" encoding="utf-8" standalone="no"?>
<!DOCTYPE svg PUBLIC "-//W3C//DTD SVG 1.1//EN"
  "http://www.w3.org/Graphics/SVG/1.1/DTD/svg11.dtd">
<svg xmlns:xlink="http://www.w3.org/1999/xlink" width="237.6pt" height="236.16pt" viewBox="0 0 237.6 236.16" xmlns="http://www.w3.org/2000/svg" version="1.1">
 <metadata>
  <rdf:RDF xmlns:dc="http://purl.org/dc/elements/1.1/" xmlns:cc="http://creativecommons.org/ns#" xmlns:rdf="http://www.w3.org/1999/02/22-rdf-syntax-ns#">
   <cc:Work>
    <dc:type rdf:resource="http://purl.org/dc/dcmitype/StillImage"/>
    <dc:date>2025-03-09T15:33:51.190667</dc:date>
    <dc:format>image/svg+xml</dc:format>
    <dc:creator>
     <cc:Agent>
      <dc:title>Matplotlib v3.7.2, https://matplotlib.org/</dc:title>
     </cc:Agent>
    </dc:creator>
   </cc:Work>
  </rdf:RDF>
 </metadata>
 <defs>
  <style type="text/css">*{stroke-linejoin: round; stroke-linecap: butt}</style>
 </defs>
 <g id="figure_1">
  <g id="patch_1">
   <path d="M 0 236.16 
L 237.6 236.16 
L 237.6 0 
L 0 0 
z
" style="fill: #121212"/>
  </g>
  <g id="axes_1">
   <g id="patch_2">
    <path d="M 31.355801 193.574947 
Q 100.357292 172.553649 168.289279 151.858176 
" clip-path="url(#pdd74355cf9)" style="fill: none; stroke: #bb86fc; stroke-opacity: 0.75; stroke-linecap: round"/>
    <path d="M 163.880054 151.110693 
L 168.289279 151.858176 
L 165.045758 154.937067 
z
" clip-path="url(#pdd74355cf9)" style="fill: #bb86fc; fill-opacity: 0.75; stroke: #bb86fc; stroke-opacity: 0.75; stroke-linecap: round"/>
   </g>
   <g id="patch_3">
    <path d="M 27.798511 190.185867 
Q 31.062426 177.321703 34.051383 165.541236 
" clip-path="url(#pdd74355cf9)" style="fill: none; stroke: #bb86fc; stroke-opacity: 0.75; stroke-linecap: round"/>
    <path d="M 31.129091 168.926529 
L 34.051383 165.541236 
L 35.006242 169.910246 
z
" clip-path="url(#pdd74355cf9)" style="fill: #bb86fc; fill-opacity: 0.75; stroke: #bb86fc; stroke-opacity: 0.75; stroke-linecap: round"/>
   </g>
   <g id="patch_4">
    <path d="M 30.861931 192.476983 
Q 38.856167 187.716965 45.889766 183.52894 
" clip-path="url(#pdd74355cf9)" style="fill: none; stroke: #bb86fc; stroke-opacity: 0.75; stroke-linecap: round"/>
    <path d="M 41.429673 183.856926 
L 45.889766 183.52894 
L 43.476099 187.293805 
z
" clip-path="url(#pdd74355cf9)" style="fill: #bb86fc; fill-opacity: 0.75; stroke: #bb86fc; stroke-opacity: 0.75; stroke-linecap: round"/>
   </g>
   <g id="patch_5">
    <path d="M 29.900767 191.309031 
Q 56.747613 161.302567 82.848975 132.129321 
" clip-path="url(#pdd74355cf9)" style="fill: none; stroke: #bb86fc; stroke-opacity: 0.75; stroke-linecap: round"/>
    <path d="M 78.691345 133.776777 
L 82.848975 132.129321 
L 81.672362 136.443899 
z
" clip-path="url(#pdd74355cf9)" style="fill: #bb86fc; fill-opacity: 0.75; stroke: #bb86fc; stroke-opacity: 0.75; stroke-linecap: round"/>
   </g>
   <g id="patch_6">
    <path d="M 133.060157 159.551315 
Q 100.899664 180.537365 69.675491 200.912428 
" clip-path="url(#pdd74355cf9)" style="fill: none; stroke: #bb86fc; stroke-opacity: 0.75; stroke-linecap: round"/>
    <path d="M 74.118337 200.401433 
L 69.675491 200.912428 
L 71.932403 197.051554 
z
" clip-path="url(#pdd74355cf9)" style="fill: #bb86fc; fill-opacity: 0.75; stroke: #bb86fc; stroke-opacity: 0.75; stroke-linecap: round"/>
   </g>
   <g id="patch_7">
    <path d="M 140.044023 152.675885 
Q 166.130482 114.038523 191.591329 76.327773 
" clip-path="url(#pdd74355cf9)" style="fill: none; stroke: #bb86fc; stroke-opacity: 0.75; stroke-linecap: round"/>
    <path d="M 187.695496 78.52379 
L 191.591329 76.327773 
L 191.010643 80.762049 
z
" clip-path="url(#pdd74355cf9)" style="fill: #bb86fc; fill-opacity: 0.75; stroke: #bb86fc; stroke-opacity: 0.75; stroke-linecap: round"/>
   </g>
   <g id="patch_8">
    <path d="M 175.567574 145.288216 
Q 192.58465 88.26146 209.282029 32.306055 
" clip-path="url(#pdd74355cf9)" style="fill: none; stroke: #bb86fc; stroke-opacity: 0.75; stroke-linecap: round"/>
    <path d="M 206.221756 35.567148 
L 209.282029 32.306055 
L 210.054739 36.71093 
z
" clip-path="url(#pdd74355cf9)" style="fill: #bb86fc; fill-opacity: 0.75; stroke: #bb86fc; stroke-opacity: 0.75; stroke-linecap: round"/>
   </g>
   <g id="patch_9">
    <path d="M 40.554435 159.745844 
Q 109.395865 161.630973 177.11968 163.485498 
" clip-path="url(#pdd74355cf9)" style="fill: none; stroke: #bb86fc; stroke-opacity: 0.75; stroke-linecap: round"/>
    <path d="M 173.175926 161.376753 
L 177.11968 163.485498 
L 173.066432 165.375255 
z
" clip-path="url(#pdd74355cf9)" style="fill: #bb86fc; fill-opacity: 0.75; stroke: #bb86fc; stroke-opacity: 0.75; stroke-linecap: round"/>
   </g>
   <g id="patch_10">
    <path d="M 156.246285 205.96859 
Q 123.242057 168.64202 90.978415 132.153024 
" clip-path="url(#pdd74355cf9)" style="fill: none; stroke: #bb86fc; stroke-opacity: 0.75; stroke-linecap: round"/>
    <path d="M 92.129715 136.474425 
L 90.978415 132.153024 
L 95.126316 133.824825 
z
" clip-path="url(#pdd74355cf9)" style="fill: #bb86fc; fill-opacity: 0.75; stroke: #bb86fc; stroke-opacity: 0.75; stroke-linecap: round"/>
   </g>
   <g id="patch_11">
    <path d="M 59.698903 203.076071 
Q 45.562307 199.644276 32.51219 196.476234 
" clip-path="url(#pdd74355cf9)" style="fill: none; stroke: #bb86fc; stroke-opacity: 0.75; stroke-linecap: round"/>
    <path d="M 35.927476 199.363416 
L 32.51219 196.476234 
L 36.871107 195.476314 
z
" clip-path="url(#pdd74355cf9)" style="fill: #bb86fc; fill-opacity: 0.75; stroke: #bb86fc; stroke-opacity: 0.75; stroke-linecap: round"/>
   </g>
   <g id="patch_12">
    <path d="M 65.481603 199.341558 
Q 73.97883 154.351077 82.268567 110.459208 
" clip-path="url(#pdd74355cf9)" style="fill: none; stroke: #bb86fc; stroke-opacity: 0.75; stroke-linecap: round"/>
    <path d="M 79.560966 114.018547 
L 82.268567 110.459208 
L 83.491478 114.760892 
z
" clip-path="url(#pdd74355cf9)" style="fill: #bb86fc; fill-opacity: 0.75; stroke: #bb86fc; stroke-opacity: 0.75; stroke-linecap: round"/>
   </g>
   <g id="patch_13">
    <path d="M 69.224316 202.467851 
Q 93.214894 193.290167 116.16124 184.511957 
" clip-path="url(#pdd74355cf9)" style="fill: none; stroke: #bb86fc; stroke-opacity: 0.75; stroke-linecap: round"/>
    <path d="M 111.710681 184.073183 
L 116.16124 184.511957 
L 113.139885 187.80914 
z
" clip-path="url(#pdd74355cf9)" style="fill: #bb86fc; fill-opacity: 0.75; stroke: #bb86fc; stroke-opacity: 0.75; stroke-linecap: round"/>
   </g>
   <g id="patch_14">
    <path d="M 69.287327 202.635156 
Q 123.893118 183.953563 177.44107 165.633874 
" clip-path="url(#pdd74355cf9)" style="fill: none; stroke: #bb86fc; stroke-opacity: 0.75; stroke-linecap: round"/>
    <path d="M 173.009032 165.036345 
L 177.44107 165.633874 
L 174.303824 168.820987 
z
" clip-path="url(#pdd74355cf9)" style="fill: #bb86fc; fill-opacity: 0.75; stroke: #bb86fc; stroke-opacity: 0.75; stroke-linecap: round"/>
   </g>
   <g id="patch_15">
    <path d="M 44.342014 50.53154 
Q 102.982659 41.627206 160.517941 32.890717 
" clip-path="url(#pdd74355cf9)" style="fill: none; stroke: #bb86fc; stroke-opacity: 0.75; stroke-linecap: round"/>
    <path d="M 156.263023 31.513883 
L 160.517941 32.890717 
L 156.863522 35.468551 
z
" clip-path="url(#pdd74355cf9)" style="fill: #bb86fc; fill-opacity: 0.75; stroke: #bb86fc; stroke-opacity: 0.75; stroke-linecap: round"/>
   </g>
   <g id="patch_16">
    <path d="M 43.341275 54.359477 
Q 111.317268 107.46773 178.412235 159.887656 
" clip-path="url(#pdd74355cf9)" style="fill: none; stroke: #bb86fc; stroke-opacity: 0.75; stroke-linecap: round"/>
    <path d="M 176.4915 155.848996 
L 178.412235 159.887656 
L 174.028865 159.001049 
z
" clip-path="url(#pdd74355cf9)" style="fill: #bb86fc; fill-opacity: 0.75; stroke: #bb86fc; stroke-opacity: 0.75; stroke-linecap: round"/>
   </g>
   <g id="patch_17">
    <path d="M 54.985514 177.190878 
Q 112.632292 129.018801 169.421148 81.56364 
" clip-path="url(#pdd74355cf9)" style="fill: none; stroke: #bb86fc; stroke-opacity: 0.75; stroke-linecap: round"/>
    <path d="M 165.069292 82.593859 
L 169.421148 81.56364 
L 167.634209 85.663256 
z
" clip-path="url(#pdd74355cf9)" style="fill: #bb86fc; fill-opacity: 0.75; stroke: #bb86fc; stroke-opacity: 0.75; stroke-linecap: round"/>
   </g>
   <g id="patch_18">
    <path d="M 55.767949 178.485689 
Q 121.713424 151.185064 186.625889 124.312092 
" clip-path="url(#pdd74355cf9)" style="fill: none; stroke: #bb86fc; stroke-opacity: 0.75; stroke-linecap: round"/>
    <path d="M 182.165065 123.994207 
L 186.625889 124.312092 
L 183.695086 127.69002 
z
" clip-path="url(#pdd74355cf9)" style="fill: #bb86fc; fill-opacity: 0.75; stroke: #bb86fc; stroke-opacity: 0.75; stroke-linecap: round"/>
   </g>
   <g id="patch_19">
    <path d="M 120.42876 56.374709 
Q 142.340883 96.882257 163.721058 136.406428 
" clip-path="url(#pdd74355cf9)" style="fill: none; stroke: #bb86fc; stroke-opacity: 0.75; stroke-linecap: round"/>
    <path d="M 163.577024 131.936612 
L 163.721058 136.406428 
L 160.058785 133.839766 
z
" clip-path="url(#pdd74355cf9)" style="fill: #bb86fc; fill-opacity: 0.75; stroke: #bb86fc; stroke-opacity: 0.75; stroke-linecap: round"/>
   </g>
   <g id="patch_20">
    <path d="M 113.055502 52.191724 
Q 97.27318 52.874522 82.607847 53.508995 
" clip-path="url(#pdd74355cf9)" style="fill: none; stroke: #bb86fc; stroke-opacity: 0.75; stroke-linecap: round"/>
    <path d="M 86.690555 55.334234 
L 82.607847 53.508995 
L 86.517663 51.337972 
z
" clip-path="url(#pdd74355cf9)" style="fill: #bb86fc; fill-opacity: 0.75; stroke: #bb86fc; stroke-opacity: 0.75; stroke-linecap: round"/>
   </g>
   <g id="patch_21">
    <path d="M 118.195905 56.976006 
Q 119.961947 117.151235 121.695192 176.208911 
" clip-path="url(#pdd74355cf9)" style="fill: none; stroke: #bb86fc; stroke-opacity: 0.75; stroke-linecap: round"/>
    <path d="M 123.576988 172.151961 
L 121.695192 176.208911 
L 119.57871 172.269304 
z
" clip-path="url(#pdd74355cf9)" style="fill: #bb86fc; fill-opacity: 0.75; stroke: #bb86fc; stroke-opacity: 0.75; stroke-linecap: round"/>
   </g>
   <g id="patch_22">
    <path d="M 120.476048 56.348211 
Q 129.015368 71.733484 137.012114 86.141203 
" clip-path="url(#pdd74355cf9)" style="fill: none; stroke: #bb86fc; stroke-opacity: 0.75; stroke-linecap: round"/>
    <path d="M 136.819645 81.673211 
L 137.012114 86.141203 
L 133.322239 83.614383 
z
" clip-path="url(#pdd74355cf9)" style="fill: #bb86fc; fill-opacity: 0.75; stroke: #bb86fc; stroke-opacity: 0.75; stroke-linecap: round"/>
   </g>
   <g id="patch_23">
    <path d="M 164.017391 36.275794 
Q 115.559645 118.113438 67.671538 198.989048 
" clip-path="url(#pdd74355cf9)" style="fill: none; stroke: #bb86fc; stroke-opacity: 0.75; stroke-linecap: round"/>
    <path d="M 71.430484 196.566173 
L 67.671538 198.989048 
L 67.988606 194.528166 
z
" clip-path="url(#pdd74355cf9)" style="fill: #bb86fc; fill-opacity: 0.75; stroke: #bb86fc; stroke-opacity: 0.75; stroke-linecap: round"/>
   </g>
   <g id="patch_24">
    <path d="M 162.796755 35.256826 
Q 124.984278 68.20979 88.014674 100.428203 
" clip-path="url(#pdd74355cf9)" style="fill: none; stroke: #bb86fc; stroke-opacity: 0.75; stroke-linecap: round"/>
    <path d="M 92.344233 99.307973 
L 88.014674 100.428203 
L 89.716225 96.292417 
z
" clip-path="url(#pdd74355cf9)" style="fill: #bb86fc; fill-opacity: 0.75; stroke: #bb86fc; stroke-opacity: 0.75; stroke-linecap: round"/>
   </g>
   <g id="patch_25">
    <path d="M 165.14028 36.767334 
Q 144.219837 107.150272 123.617941 176.461517 
" clip-path="url(#pdd74355cf9)" style="fill: none; stroke: #bb86fc; stroke-opacity: 0.75; stroke-linecap: round"/>
    <path d="M 126.674715 173.197144 
L 123.617941 176.461517 
L 122.840507 172.057474 
z
" clip-path="url(#pdd74355cf9)" style="fill: #bb86fc; fill-opacity: 0.75; stroke: #bb86fc; stroke-opacity: 0.75; stroke-linecap: round"/>
   </g>
   <g id="patch_26">
    <path d="M 100.520075 84.921445 
Q 83.258557 142.193574 66.319674 198.395233 
" clip-path="url(#pdd74355cf9)" style="fill: none; stroke: #bb86fc; stroke-opacity: 0.75; stroke-linecap: round"/>
    <path d="M 69.388881 195.142547 
L 66.319674 198.395233 
L 65.55905 193.988255 
z
" clip-path="url(#pdd74355cf9)" style="fill: #bb86fc; fill-opacity: 0.75; stroke: #bb86fc; stroke-opacity: 0.75; stroke-linecap: round"/>
   </g>
   <g id="patch_27">
    <path d="M 97.438975 82.271236 
Q 92.142605 84.769823 87.857398 86.791389 
" clip-path="url(#pdd74355cf9)" style="fill: none; stroke: #bb86fc; stroke-opacity: 0.75; stroke-linecap: round"/>
    <path d="M 92.328367 86.893571 
L 87.857398 86.791389 
L 90.621725 83.275923 
z
" clip-path="url(#pdd74355cf9)" style="fill: #bb86fc; fill-opacity: 0.75; stroke: #bb86fc; stroke-opacity: 0.75; stroke-linecap: round"/>
   </g>
   <g id="patch_28">
    <path d="M 98.928633 84.110807 
Q 92.683439 92.291352 87.116673 99.583227 
" clip-path="url(#pdd74355cf9)" style="fill: none; stroke: #bb86fc; stroke-opacity: 0.75; stroke-linecap: round"/>
    <path d="M 91.133595 97.617434 
L 87.116673 99.583227 
L 87.954193 95.190214 
z
" clip-path="url(#pdd74355cf9)" style="fill: #bb86fc; fill-opacity: 0.75; stroke: #bb86fc; stroke-opacity: 0.75; stroke-linecap: round"/>
   </g>
   <g id="patch_29">
    <path d="M 192.215645 75.403081 
Q 166.129186 114.040443 140.668339 151.751193 
" clip-path="url(#pdd74355cf9)" style="fill: none; stroke: #bb86fc; stroke-opacity: 0.75; stroke-linecap: round"/>
    <path d="M 144.564172 149.555176 
L 140.668339 151.751193 
L 141.249025 147.316917 
z
" clip-path="url(#pdd74355cf9)" style="fill: #bb86fc; fill-opacity: 0.75; stroke: #bb86fc; stroke-opacity: 0.75; stroke-linecap: round"/>
   </g>
   <g id="patch_30">
    <path d="M 81.712602 155.576571 
Q 81.996384 124.986748 82.269795 95.51491 
" clip-path="url(#pdd74355cf9)" style="fill: none; stroke: #bb86fc; stroke-opacity: 0.75; stroke-linecap: round"/>
    <path d="M 80.232775 99.496185 
L 82.269795 95.51491 
L 84.232603 99.533292 
z
" clip-path="url(#pdd74355cf9)" style="fill: #bb86fc; fill-opacity: 0.75; stroke: #bb86fc; stroke-opacity: 0.75; stroke-linecap: round"/>
   </g>
   <g id="patch_31">
    <path d="M 77.474972 163.298955 
Q 66.407828 170.486905 56.278314 177.065878 
" clip-path="url(#pdd74355cf9)" style="fill: none; stroke: #bb86fc; stroke-opacity: 0.75; stroke-linecap: round"/>
    <path d="M 60.722247 176.564419 
L 56.278314 177.065878 
L 58.543507 173.209857 
z
" clip-path="url(#pdd74355cf9)" style="fill: #bb86fc; fill-opacity: 0.75; stroke: #bb86fc; stroke-opacity: 0.75; stroke-linecap: round"/>
   </g>
   <g id="patch_32">
    <path d="M 83.255081 155.834121 
Q 99.858399 106.274109 116.106559 57.77422 
" clip-path="url(#pdd74355cf9)" style="fill: none; stroke: #bb86fc; stroke-opacity: 0.75; stroke-linecap: round"/>
    <path d="M 112.939503 60.931712 
L 116.106559 57.77422 
L 116.732319 62.20236 
z
" clip-path="url(#pdd74355cf9)" style="fill: #bb86fc; fill-opacity: 0.75; stroke: #bb86fc; stroke-opacity: 0.75; stroke-linecap: round"/>
   </g>
   <g id="patch_33">
    <path d="M 86.066474 162.956976 
Q 101.769739 171.451128 116.489616 179.413349 
" clip-path="url(#pdd74355cf9)" style="fill: none; stroke: #bb86fc; stroke-opacity: 0.75; stroke-linecap: round"/>
    <path d="M 113.922889 175.751121 
L 116.489616 179.413349 
L 112.019797 179.269394 
z
" clip-path="url(#pdd74355cf9)" style="fill: #bb86fc; fill-opacity: 0.75; stroke: #bb86fc; stroke-opacity: 0.75; stroke-linecap: round"/>
   </g>
   <g id="patch_34">
    <path d="M 91.062256 124.758955 
Q 113.453936 109.530668 134.921122 94.931118 
" clip-path="url(#pdd74355cf9)" style="fill: none; stroke: #bb86fc; stroke-opacity: 0.75; stroke-linecap: round"/>
    <path d="M 130.488831 95.526768 
L 134.921122 94.931118 
L 132.738267 98.834341 
z
" clip-path="url(#pdd74355cf9)" style="fill: #bb86fc; fill-opacity: 0.75; stroke: #bb86fc; stroke-opacity: 0.75; stroke-linecap: round"/>
   </g>
   <g id="patch_35">
    <path d="M 129.470996 168.704248 
Q 169.00731 99.743581 207.987543 31.75285 
" clip-path="url(#pdd74355cf9)" style="fill: none; stroke: #bb86fc; stroke-opacity: 0.75; stroke-linecap: round"/>
    <path d="M 204.262976 34.22825 
L 207.987543 31.75285 
L 207.733123 36.217743 
z
" clip-path="url(#pdd74355cf9)" style="fill: #bb86fc; fill-opacity: 0.75; stroke: #bb86fc; stroke-opacity: 0.75; stroke-linecap: round"/>
   </g>
   <g id="patch_36">
    <path d="M 122.514639 175.276283 
Q 95.77173 188.646749 70.028836 201.517245 
" clip-path="url(#pdd74355cf9)" style="fill: none; stroke: #bb86fc; stroke-opacity: 0.75; stroke-linecap: round"/>
    <path d="M 74.500972 201.517377 
L 70.028836 201.517245 
L 72.712224 197.939615 
z
" clip-path="url(#pdd74355cf9)" style="fill: #bb86fc; fill-opacity: 0.75; stroke: #bb86fc; stroke-opacity: 0.75; stroke-linecap: round"/>
   </g>
   <g id="patch_37">
    <path d="M 170.20392 80.753043 
Q 100.342351 136.336883 31.355682 191.224627 
" clip-path="url(#pdd74355cf9)" style="fill: none; stroke: #bb86fc; stroke-opacity: 0.75; stroke-linecap: round"/>
    <path d="M 35.731035 190.299269 
L 31.355682 191.224627 
L 33.240608 187.16913 
z
" clip-path="url(#pdd74355cf9)" style="fill: #bb86fc; fill-opacity: 0.75; stroke: #bb86fc; stroke-opacity: 0.75; stroke-linecap: round"/>
   </g>
   <g id="patch_38">
    <path d="M 174.514214 82.624086 
Q 175.063464 89.471435 175.523319 95.20433 
" clip-path="url(#pdd74355cf9)" style="fill: none; stroke: #bb86fc; stroke-opacity: 0.75; stroke-linecap: round"/>
    <path d="M 177.197089 91.057223 
L 175.523319 95.20433 
L 173.209896 91.37705 
z
" clip-path="url(#pdd74355cf9)" style="fill: #bb86fc; fill-opacity: 0.75; stroke: #bb86fc; stroke-opacity: 0.75; stroke-linecap: round"/>
   </g>
   <g id="patch_39">
    <path d="M 178.331018 164.63446 
Q 104.902144 179.342697 32.569529 193.831346 
" clip-path="url(#pdd74355cf9)" style="fill: none; stroke: #bb86fc; stroke-opacity: 0.75; stroke-linecap: round"/>
    <path d="M 36.884429 195.006774 
L 32.569529 193.831346 
L 36.098811 191.084682 
z
" clip-path="url(#pdd74355cf9)" style="fill: #bb86fc; fill-opacity: 0.75; stroke: #bb86fc; stroke-opacity: 0.75; stroke-linecap: round"/>
   </g>
   <g id="patch_40">
    <path d="M 179.292089 160.575068 
Q 111.316096 107.466815 44.221129 55.046889 
" clip-path="url(#pdd74355cf9)" style="fill: none; stroke: #bb86fc; stroke-opacity: 0.75; stroke-linecap: round"/>
    <path d="M 46.141865 59.085549 
L 44.221129 55.046889 
L 48.604499 55.933497 
z
" clip-path="url(#pdd74355cf9)" style="fill: #bb86fc; fill-opacity: 0.75; stroke: #bb86fc; stroke-opacity: 0.75; stroke-linecap: round"/>
   </g>
   <g id="patch_41">
    <path d="M 180.206179 159.667806 
Q 174.93098 152.719172 170.331817 146.66103 
" clip-path="url(#pdd74355cf9)" style="fill: none; stroke: #bb86fc; stroke-opacity: 0.75; stroke-linecap: round"/>
    <path d="M 171.157514 151.05628 
L 170.331817 146.66103 
L 174.343436 148.637623 
z
" clip-path="url(#pdd74355cf9)" style="fill: #bb86fc; fill-opacity: 0.75; stroke: #bb86fc; stroke-opacity: 0.75; stroke-linecap: round"/>
   </g>
   <g id="patch_42">
    <path d="M 178.449251 165.1083 
Q 152.553215 172.989523 127.726775 180.545225 
" clip-path="url(#pdd74355cf9)" style="fill: none; stroke: #bb86fc; stroke-opacity: 0.75; stroke-linecap: round"/>
    <path d="M 132.135789 181.293954 
L 127.726775 180.545225 
L 130.971167 177.467251 
z
" clip-path="url(#pdd74355cf9)" style="fill: #bb86fc; fill-opacity: 0.75; stroke: #bb86fc; stroke-opacity: 0.75; stroke-linecap: round"/>
   </g>
   <g id="patch_43">
    <path d="M 135.790275 94.223692 
Q 87.76721 125.550486 40.680557 156.266432 
" clip-path="url(#pdd74355cf9)" style="fill: none; stroke: #bb86fc; stroke-opacity: 0.75; stroke-linecap: round"/>
    <path d="M 45.12348 155.756102 
L 40.680557 156.266432 
L 42.938046 152.405896 
z
" clip-path="url(#pdd74355cf9)" style="fill: #bb86fc; fill-opacity: 0.75; stroke: #bb86fc; stroke-opacity: 0.75; stroke-linecap: round"/>
   </g>
   <g id="patch_44">
    <path d="M 137.553995 87.117507 
Q 129.014674 71.732234 121.017928 57.324515 
" clip-path="url(#pdd74355cf9)" style="fill: none; stroke: #bb86fc; stroke-opacity: 0.75; stroke-linecap: round"/>
    <path d="M 121.210397 61.792508 
L 121.017928 57.324515 
L 124.707804 59.851335 
z
" clip-path="url(#pdd74355cf9)" style="fill: #bb86fc; fill-opacity: 0.75; stroke: #bb86fc; stroke-opacity: 0.75; stroke-linecap: round"/>
   </g>
   <g id="patch_45">
    <path d="M 99.074764 132.032794 
Q 107.985512 94.436392 116.638417 57.927887 
" clip-path="url(#pdd74355cf9)" style="fill: none; stroke: #bb86fc; stroke-opacity: 0.75; stroke-linecap: round"/>
    <path d="M 113.769843 61.358818 
L 116.638417 57.927887 
L 117.662017 62.281304 
z
" clip-path="url(#pdd74355cf9)" style="fill: #bb86fc; fill-opacity: 0.75; stroke: #bb86fc; stroke-opacity: 0.75; stroke-linecap: round"/>
   </g>
   <g id="patch_46">
    <path d="M 172.342364 104.693266 
Q 120.285183 152.777011 69.049294 200.102152 
" clip-path="url(#pdd74355cf9)" style="fill: none; stroke: #bb86fc; stroke-opacity: 0.75; stroke-linecap: round"/>
    <path d="M 73.344668 198.85726 
L 69.049294 200.102152 
L 70.630604 195.918917 
z
" clip-path="url(#pdd74355cf9)" style="fill: #bb86fc; fill-opacity: 0.75; stroke: #bb86fc; stroke-opacity: 0.75; stroke-linecap: round"/>
   </g>
   <g id="patch_47">
    <path d="M 188.056804 124.645355 
Q 164.76503 139.394219 142.417839 153.544952 
" clip-path="url(#pdd74355cf9)" style="fill: none; stroke: #bb86fc; stroke-opacity: 0.75; stroke-linecap: round"/>
    <path d="M 146.867255 153.094735 
L 142.417839 153.544952 
L 144.727315 149.715289 
z
" clip-path="url(#pdd74355cf9)" style="fill: #bb86fc; fill-opacity: 0.75; stroke: #bb86fc; stroke-opacity: 0.75; stroke-linecap: round"/>
   </g>
   <g id="patch_48">
    <path d="M 187.739422 119.869089 
Q 147.11893 101.053942 107.512927 82.7087 
" clip-path="url(#pdd74355cf9)" style="fill: none; stroke: #bb86fc; stroke-opacity: 0.75; stroke-linecap: round"/>
    <path d="M 110.301884 86.204658 
L 107.512927 82.7087 
L 111.983068 82.575109 
z
" clip-path="url(#pdd74355cf9)" style="fill: #bb86fc; fill-opacity: 0.75; stroke: #bb86fc; stroke-opacity: 0.75; stroke-linecap: round"/>
   </g>
   <g id="patch_49">
    <path d="M 188.339539 125.05299 
Q 159.629831 147.508115 131.80078 169.27444 
" clip-path="url(#pdd74355cf9)" style="fill: none; stroke: #bb86fc; stroke-opacity: 0.75; stroke-linecap: round"/>
    <path d="M 136.183673 168.385481 
L 131.80078 169.27444 
L 133.719348 165.23475 
z
" clip-path="url(#pdd74355cf9)" style="fill: #bb86fc; fill-opacity: 0.75; stroke: #bb86fc; stroke-opacity: 0.75; stroke-linecap: round"/>
   </g>
   <g id="patch_50">
    <path d="M 179.537116 57.876668 
Q 181.297108 108.267881 183.018075 157.541742 
" clip-path="url(#pdd74355cf9)" style="fill: none; stroke: #bb86fc; stroke-opacity: 0.75; stroke-linecap: round"/>
    <path d="M 184.877235 153.474369 
L 183.018075 157.541742 
L 180.879673 153.61399 
z
" clip-path="url(#pdd74355cf9)" style="fill: #bb86fc; fill-opacity: 0.75; stroke: #bb86fc; stroke-opacity: 0.75; stroke-linecap: round"/>
   </g>
   <g id="patch_51">
    <path d="M 29.92707 187.052728 
Q 45.014237 151.201557 59.017243 117.926644 
" clip-path="url(#pdd74355cf9)" style="fill: none; stroke: #ffd700; stroke-width: 2.5; stroke-linecap: round"/>
    <path d="M 55.622301 120.83772 
L 59.017243 117.926644 
L 59.309139 122.389243 
z
" clip-path="url(#pdd74355cf9)" style="fill: #ffd700; stroke: #ffd700; stroke-width: 2.5; stroke-linecap: round"/>
   </g>
   <g id="patch_52">
    <path d="M 71.743069 109.889792 
Q 81.90453 112.98548 89.392231 115.266607 
" clip-path="url(#pdd74355cf9)" style="fill: none; stroke: #ffd700; stroke-width: 2.5; stroke-linecap: round"/>
    <path d="M 86.148709 112.187716 
L 89.392231 115.266607 
L 84.983005 116.014089 
z
" clip-path="url(#pdd74355cf9)" style="fill: #ffd700; stroke: #ffd700; stroke-width: 2.5; stroke-linecap: round"/>
   </g>
   <g id="patch_53">
    <path d="M 106.368125 124.835804 
Q 118.800239 137.713107 129.290995 148.579534 
" clip-path="url(#pdd74355cf9)" style="fill: none; stroke: #ffd700; stroke-width: 2.5; stroke-linecap: round"/>
    <path d="M 127.951616 144.312677 
L 129.290995 148.579534 
L 125.073882 147.090923 
z
" clip-path="url(#pdd74355cf9)" style="fill: #ffd700; stroke: #ffd700; stroke-width: 2.5; stroke-linecap: round"/>
   </g>
   <g id="patch_54">
    <path d="M 145.762374 155.26304 
Q 155.691713 153.448056 162.871524 152.135659 
" clip-path="url(#pdd74355cf9)" style="fill: none; stroke: #ffd700; stroke-width: 2.5; stroke-linecap: round"/>
    <path d="M 158.577098 150.8875 
L 162.871524 152.135659 
L 159.296341 154.822305 
z
" clip-path="url(#pdd74355cf9)" style="fill: #ffd700; stroke: #ffd700; stroke-width: 2.5; stroke-linecap: round"/>
   </g>
   <g id="patch_55">
    <path d="M 176.614635 141.77936 
Q 192.585222 88.259543 207.756567 37.418106 
" clip-path="url(#pdd74355cf9)" style="fill: none; stroke: #ffd700; stroke-width: 2.5; stroke-linecap: round"/>
    <path d="M 204.696293 40.679198 
L 207.756567 37.418106 
L 208.529277 41.82298 
z
" clip-path="url(#pdd74355cf9)" style="fill: #ffd700; stroke: #ffd700; stroke-width: 2.5; stroke-linecap: round"/>
   </g>
   <g id="PathCollection_1">
    <defs>
     <path id="mcc8c037fd6" d="M 0 5 
C 1.326016 5 2.597899 4.473168 3.535534 3.535534 
C 4.473168 2.597899 5 1.326016 5 0 
C 5 -1.326016 4.473168 -2.597899 3.535534 -3.535534 
C 2.597899 -4.473168 1.326016 -5 0 -5 
C -1.326016 -5 -2.597899 -4.473168 -3.535534 -3.535534 
C -4.473168 -2.597899 -5 -1.326016 -5 0 
C -5 1.326016 -4.473168 2.597899 -3.535534 3.535534 
C -2.597899 4.473168 -1.326016 5 0 5 
z
" style="stroke: #bb86fc; stroke-opacity: 0.75"/>
    </defs>
    <g clip-path="url(#pdd74355cf9)">
     <use xlink:href="#mcc8c037fd6" x="26.568595" y="195.033369" style="fill: #bb86fc; fill-opacity: 0.75; stroke: #bb86fc; stroke-opacity: 0.75"/>
     <use xlink:href="#mcc8c037fd6" x="63.461157" y="107.366708" style="fill: #bb86fc; fill-opacity: 0.75; stroke: #bb86fc; stroke-opacity: 0.75"/>
     <use xlink:href="#mcc8c037fd6" x="100.353719" y="118.606023" style="fill: #bb86fc; fill-opacity: 0.75; stroke: #bb86fc; stroke-opacity: 0.75"/>
     <use xlink:href="#mcc8c037fd6" x="137.246281" y="156.819696" style="fill: #bb86fc; fill-opacity: 0.75; stroke: #bb86fc; stroke-opacity: 0.75"/>
     <use xlink:href="#mcc8c037fd6" x="174.138843" y="150.076107" style="fill: #bb86fc; fill-opacity: 0.75; stroke: #bb86fc; stroke-opacity: 0.75"/>
     <use xlink:href="#mcc8c037fd6" x="211.031405" y="26.443636" style="fill: #bb86fc; fill-opacity: 0.75; stroke: #bb86fc; stroke-opacity: 0.75"/>
     <use xlink:href="#mcc8c037fd6" x="35.556523" y="159.608983" style="fill: #bb86fc; fill-opacity: 0.75; stroke: #bb86fc; stroke-opacity: 0.75"/>
     <use xlink:href="#mcc8c037fd6" x="159.560073" y="209.716364" style="fill: #bb86fc; fill-opacity: 0.75; stroke: #bb86fc; stroke-opacity: 0.75"/>
     <use xlink:href="#mcc8c037fd6" x="64.553687" y="204.254617" style="fill: #bb86fc; fill-opacity: 0.75; stroke: #bb86fc; stroke-opacity: 0.75"/>
     <use xlink:href="#mcc8c037fd6" x="82.326518" y="89.400607" style="fill: #bb86fc; fill-opacity: 0.75; stroke: #bb86fc; stroke-opacity: 0.75"/>
     <use xlink:href="#mcc8c037fd6" x="83.404242" y="104.44612" style="fill: #bb86fc; fill-opacity: 0.75; stroke: #bb86fc; stroke-opacity: 0.75"/>
     <use xlink:href="#mcc8c037fd6" x="39.401849" y="51.281684" style="fill: #bb86fc; fill-opacity: 0.75; stroke: #bb86fc; stroke-opacity: 0.75"/>
     <use xlink:href="#mcc8c037fd6" x="51.146516" y="180.398907" style="fill: #bb86fc; fill-opacity: 0.75; stroke: #bb86fc; stroke-opacity: 0.75"/>
     <use xlink:href="#mcc8c037fd6" x="118.049153" y="51.975681" style="fill: #bb86fc; fill-opacity: 0.75; stroke: #bb86fc; stroke-opacity: 0.75"/>
     <use xlink:href="#mcc8c037fd6" x="166.565508" y="31.972419" style="fill: #bb86fc; fill-opacity: 0.75; stroke: #bb86fc; stroke-opacity: 0.75"/>
     <use xlink:href="#mcc8c037fd6" x="166.631678" y="141.787106" style="fill: #bb86fc; fill-opacity: 0.75; stroke: #bb86fc; stroke-opacity: 0.75"/>
     <use xlink:href="#mcc8c037fd6" x="101.961927" y="80.137513" style="fill: #bb86fc; fill-opacity: 0.75; stroke: #bb86fc; stroke-opacity: 0.75"/>
     <use xlink:href="#mcc8c037fd6" x="76.497102" y="53.773367" style="fill: #bb86fc; fill-opacity: 0.75; stroke: #bb86fc; stroke-opacity: 0.75"/>
     <use xlink:href="#mcc8c037fd6" x="195.013387" y="71.25927" style="fill: #bb86fc; fill-opacity: 0.75; stroke: #bb86fc; stroke-opacity: 0.75"/>
     <use xlink:href="#mcc8c037fd6" x="121.874725" y="182.326243" style="fill: #bb86fc; fill-opacity: 0.75; stroke: #bb86fc; stroke-opacity: 0.75"/>
     <use xlink:href="#mcc8c037fd6" x="81.666214" y="160.576803" style="fill: #bb86fc; fill-opacity: 0.75; stroke: #bb86fc; stroke-opacity: 0.75"/>
     <use xlink:href="#mcc8c037fd6" x="86.927146" y="127.571188" style="fill: #bb86fc; fill-opacity: 0.75; stroke: #bb86fc; stroke-opacity: 0.75"/>
     <use xlink:href="#mcc8c037fd6" x="126.984312" y="173.041612" style="fill: #bb86fc; fill-opacity: 0.75; stroke: #bb86fc; stroke-opacity: 0.75"/>
     <use xlink:href="#mcc8c037fd6" x="174.114554" y="77.641631" style="fill: #bb86fc; fill-opacity: 0.75; stroke: #bb86fc; stroke-opacity: 0.75"/>
     <use xlink:href="#mcc8c037fd6" x="183.231515" y="163.652862" style="fill: #bb86fc; fill-opacity: 0.75; stroke: #bb86fc; stroke-opacity: 0.75"/>
     <use xlink:href="#mcc8c037fd6" x="139.980889" y="91.490037" style="fill: #bb86fc; fill-opacity: 0.75; stroke: #bb86fc; stroke-opacity: 0.75"/>
     <use xlink:href="#mcc8c037fd6" x="97.921841" y="136.897227" style="fill: #bb86fc; fill-opacity: 0.75; stroke: #bb86fc; stroke-opacity: 0.75"/>
     <use xlink:href="#mcc8c037fd6" x="176.012533" y="101.303235" style="fill: #bb86fc; fill-opacity: 0.75; stroke: #bb86fc; stroke-opacity: 0.75"/>
     <use xlink:href="#mcc8c037fd6" x="192.278978" y="121.971782" style="fill: #bb86fc; fill-opacity: 0.75; stroke: #bb86fc; stroke-opacity: 0.75"/>
     <use xlink:href="#mcc8c037fd6" x="179.362485" y="52.876732" style="fill: #bb86fc; fill-opacity: 0.75; stroke: #bb86fc; stroke-opacity: 0.75"/>
    </g>
   </g>
   <g id="PathCollection_2">
    <defs>
     <path id="m460e112d2c" d="M 0 8.660254 
C 2.296726 8.660254 4.499694 7.747755 6.123724 6.123724 
C 7.747755 4.499694 8.660254 2.296726 8.660254 0 
C 8.660254 -2.296726 7.747755 -4.499694 6.123724 -6.123724 
C 4.499694 -7.747755 2.296726 -8.660254 0 -8.660254 
C -2.296726 -8.660254 -4.499694 -7.747755 -6.123724 -6.123724 
C -7.747755 -4.499694 -8.660254 -2.296726 -8.660254 0 
C -8.660254 2.296726 -7.747755 4.499694 -6.123724 6.123724 
C -4.499694 7.747755 -2.296726 8.660254 0 8.660254 
z
" style="stroke: #ffd700"/>
    </defs>
    <g clip-path="url(#pdd74355cf9)">
     <use xlink:href="#m460e112d2c" x="26.568595" y="195.033369" style="fill: #ffd700; stroke: #ffd700"/>
     <use xlink:href="#m460e112d2c" x="63.461157" y="107.366708" style="fill: #ffd700; stroke: #ffd700"/>
     <use xlink:href="#m460e112d2c" x="100.353719" y="118.606023" style="fill: #ffd700; stroke: #ffd700"/>
     <use xlink:href="#m460e112d2c" x="137.246281" y="156.819696" style="fill: #ffd700; stroke: #ffd700"/>
     <use xlink:href="#m460e112d2c" x="174.138843" y="150.076107" style="fill: #ffd700; stroke: #ffd700"/>
     <use xlink:href="#m460e112d2c" x="211.031405" y="26.443636" style="fill: #ffd700; stroke: #ffd700"/>
    </g>
   </g>
  </g>
 </g>
 <defs>
  <clipPath id="pdd74355cf9">
   <rect x="7.2" y="7.2" width="223.2" height="221.76"/>
  </clipPath>
 </defs>
</svg>
